<svg width="809" height="925" viewBox="0 0 809 925" fill="none" xmlns="http://www.w3.org/2000/svg">
<path d="M70.26 836.74C71.02 836.74 71.68 837.04 72.24 837.64L77.82 843.7C74.3 847.94 69.98 851.22 64.86 853.54C59.74 855.82 53.62 856.96 46.5 856.96C40.18 856.96 34.46 855.88 29.34 853.72C24.26 851.52 19.92 848.48 16.32 844.6C12.72 840.68 9.94 836.02 7.98 830.62C6.06 825.22 5.1 819.28 5.1 812.8C5.1 806.32 6.12 800.38 8.16 794.98C10.24 789.54 13.14 784.88 16.86 781C20.62 777.08 25.1 774.04 30.3 771.88C35.54 769.72 41.3 768.64 47.58 768.64C53.82 768.64 59.32 769.66 64.08 771.7C68.88 773.7 73.04 776.38 76.56 779.74L71.94 786.28C71.62 786.72 71.24 787.1 70.8 787.42C70.36 787.74 69.76 787.9 69 787.9C68.2 787.9 67.28 787.54 66.24 786.82C65.24 786.06 63.94 785.24 62.34 784.36C60.78 783.44 58.8 782.62 56.4 781.9C54.04 781.14 51.08 780.76 47.52 780.76C43.4 780.76 39.62 781.48 36.18 782.92C32.74 784.36 29.78 786.46 27.3 789.22C24.82 791.98 22.88 795.34 21.48 799.3C20.12 803.26 19.44 807.76 19.44 812.8C19.44 817.88 20.16 822.42 21.6 826.42C23.04 830.38 25.02 833.74 27.54 836.5C30.06 839.22 33.02 841.3 36.42 842.74C39.82 844.18 43.48 844.9 47.4 844.9C49.8 844.9 51.94 844.78 53.82 844.54C55.74 844.26 57.5 843.84 59.1 843.28C60.7 842.68 62.2 841.94 63.6 841.06C65.04 840.18 66.46 839.1 67.86 837.82C68.66 837.1 69.46 836.74 70.26 836.74ZM187.37 812.8C187.37 819.2 186.33 825.1 184.25 830.5C182.17 835.9 179.23 840.56 175.43 844.48C171.67 848.36 167.13 851.4 161.81 853.6C156.53 855.8 150.65 856.9 144.17 856.9C137.73 856.9 131.85 855.8 126.53 853.6C121.25 851.4 116.71 848.36 112.91 844.48C109.11 840.56 106.17 835.9 104.09 830.5C102.01 825.1 100.97 819.2 100.97 812.8C100.97 806.4 102.01 800.5 104.09 795.1C106.17 789.7 109.11 785.04 112.91 781.12C116.71 777.2 121.25 774.14 126.53 771.94C131.85 769.74 137.73 768.64 144.17 768.64C150.65 768.64 156.53 769.74 161.81 771.94C167.13 774.14 171.67 777.2 175.43 781.12C179.23 785.04 182.17 789.7 184.25 795.1C186.33 800.5 187.37 806.4 187.37 812.8ZM173.03 812.8C173.03 807.84 172.35 803.38 170.99 799.42C169.67 795.46 167.75 792.1 165.23 789.34C162.75 786.58 159.73 784.46 156.17 782.98C152.61 781.5 148.61 780.76 144.17 780.76C139.77 780.76 135.79 781.5 132.23 782.98C128.67 784.46 125.63 786.58 123.11 789.34C120.59 792.1 118.65 795.46 117.29 799.42C115.93 803.38 115.25 807.84 115.25 812.8C115.25 817.8 115.93 822.28 117.29 826.24C118.65 830.2 120.59 833.56 123.11 836.32C125.63 839.04 128.67 841.14 132.23 842.62C135.79 844.06 139.77 844.78 144.17 844.78C148.61 844.78 152.61 844.06 156.17 842.62C159.73 841.14 162.75 839.04 165.23 836.32C167.75 833.56 169.67 830.2 170.99 826.24C172.35 822.28 173.03 817.8 173.03 812.8ZM234.852 780.94V808.6H268.632V819.94H234.852V856H220.752V769.6H274.632V780.94H234.852ZM386.963 812.8C386.963 819.2 385.923 825.1 383.843 830.5C381.763 835.9 378.823 840.56 375.023 844.48C371.263 848.36 366.723 851.4 361.403 853.6C356.123 855.8 350.243 856.9 343.763 856.9C337.323 856.9 331.443 855.8 326.123 853.6C320.843 851.4 316.303 848.36 312.503 844.48C308.703 840.56 305.763 835.9 303.683 830.5C301.603 825.1 300.563 819.2 300.563 812.8C300.563 806.4 301.603 800.5 303.683 795.1C305.763 789.7 308.703 785.04 312.503 781.12C316.303 777.2 320.843 774.14 326.123 771.94C331.443 769.74 337.323 768.64 343.763 768.64C350.243 768.64 356.123 769.74 361.403 771.94C366.723 774.14 371.263 777.2 375.023 781.12C378.823 785.04 381.763 789.7 383.843 795.1C385.923 800.5 386.963 806.4 386.963 812.8ZM372.623 812.8C372.623 807.84 371.943 803.38 370.583 799.42C369.263 795.46 367.343 792.1 364.823 789.34C362.343 786.58 359.323 784.46 355.763 782.98C352.203 781.5 348.203 780.76 343.763 780.76C339.363 780.76 335.383 781.5 331.823 782.98C328.263 784.46 325.223 786.58 322.703 789.34C320.183 792.1 318.243 795.46 316.883 799.42C315.523 803.38 314.843 807.84 314.843 812.8C314.843 817.8 315.523 822.28 316.883 826.24C318.243 830.2 320.183 833.56 322.703 836.32C325.223 839.04 328.263 841.14 331.823 842.62C335.383 844.06 339.363 844.78 343.763 844.78C348.203 844.78 352.203 844.06 355.763 842.62C359.323 841.14 362.343 839.04 364.823 836.32C367.343 833.56 369.263 830.2 370.583 826.24C371.943 822.28 372.623 817.8 372.623 812.8ZM454.426 844.66C457.746 844.66 460.706 844.1 463.306 842.98C465.946 841.86 468.166 840.3 469.966 838.3C471.806 836.3 473.206 833.9 474.166 831.1C475.126 828.26 475.606 825.12 475.606 821.68V769.6H489.586V821.68C489.586 826.76 488.766 831.46 487.126 835.78C485.526 840.1 483.206 843.84 480.166 847C477.126 850.12 473.426 852.58 469.066 854.38C464.746 856.14 459.866 857.02 454.426 857.02C448.986 857.02 444.086 856.14 439.726 854.38C435.406 852.58 431.726 850.12 428.686 847C425.646 843.84 423.306 840.1 421.666 835.78C420.066 831.46 419.266 826.76 419.266 821.68V769.6H433.306V821.62C433.306 825.06 433.786 828.2 434.746 831.04C435.706 833.84 437.086 836.26 438.886 838.3C440.686 840.3 442.886 841.86 445.486 842.98C448.126 844.1 451.106 844.66 454.426 844.66ZM598.577 769.6V856H591.437C590.357 856 589.437 855.82 588.677 855.46C587.917 855.06 587.197 854.42 586.517 853.54L539.057 792.58C539.177 793.74 539.257 794.9 539.297 796.06C539.377 797.18 539.417 798.22 539.417 799.18V856H527.057V769.6H534.377C534.977 769.6 535.477 769.64 535.877 769.72C536.317 769.76 536.717 769.86 537.077 770.02C537.437 770.18 537.777 770.42 538.097 770.74C538.417 771.06 538.757 771.46 539.117 771.94L586.637 832.96C586.517 831.72 586.417 830.5 586.337 829.3C586.297 828.1 586.277 826.98 586.277 825.94V769.6H598.577ZM713.006 812.8C713.006 819.2 711.966 825.06 709.886 830.38C707.806 835.66 704.866 840.2 701.066 844C697.306 847.8 692.766 850.76 687.446 852.88C682.166 854.96 676.286 856 669.806 856H637.166V769.6H669.806C676.286 769.6 682.166 770.66 687.446 772.78C692.766 774.86 697.306 777.8 701.066 781.6C704.866 785.4 707.806 789.96 709.886 795.28C711.966 800.56 713.006 806.4 713.006 812.8ZM698.666 812.8C698.666 807.84 697.986 803.38 696.626 799.42C695.306 795.46 693.386 792.12 690.866 789.4C688.386 786.68 685.366 784.6 681.806 783.16C678.246 781.68 674.246 780.94 669.806 780.94H651.266V844.66H669.806C674.246 844.66 678.246 843.94 681.806 842.5C685.366 841.06 688.386 838.98 690.866 836.26C693.386 833.5 695.306 830.16 696.626 826.24C697.986 822.28 698.666 817.8 698.666 812.8ZM776.453 822.16V856H762.473V822.16L730.913 769.6H743.213C744.453 769.6 745.433 769.9 746.153 770.5C746.873 771.1 747.473 771.86 747.953 772.78L765.653 803.74C766.453 805.3 767.173 806.78 767.813 808.18C768.493 809.58 769.093 810.96 769.613 812.32C770.053 810.92 770.593 809.54 771.233 808.18C771.873 806.78 772.593 805.3 773.393 803.74L790.973 772.78C791.373 771.98 791.953 771.26 792.713 770.62C793.473 769.94 794.453 769.6 795.653 769.6H808.013L776.453 822.16Z" fill="white"/>
<path d="M120.496 907.748L115.312 894.878C115.132 894.458 114.958 893.954 114.79 893.366C114.718 893.654 114.64 893.93 114.556 894.194C114.472 894.446 114.382 894.68 114.286 894.896L109.102 907.748H120.496ZM126.13 917H124.708C124.54 917 124.402 916.958 124.294 916.874C124.186 916.778 124.102 916.658 124.042 916.514L121.054 909.116H108.544L105.556 916.514C105.508 916.646 105.424 916.76 105.304 916.856C105.184 916.952 105.04 917 104.872 917H103.468L113.89 891.53H115.708L126.13 917ZM162.096 894.626C161.988 894.83 161.832 894.932 161.628 894.932C161.472 894.932 161.268 894.824 161.016 894.608C160.776 894.38 160.446 894.134 160.026 893.87C159.606 893.594 159.078 893.342 158.442 893.114C157.818 892.886 157.044 892.772 156.12 892.772C155.196 892.772 154.38 892.904 153.672 893.168C152.976 893.432 152.388 893.792 151.908 894.248C151.44 894.704 151.08 895.232 150.828 895.832C150.588 896.432 150.468 897.062 150.468 897.722C150.468 898.586 150.648 899.3 151.008 899.864C151.38 900.428 151.866 900.908 152.466 901.304C153.066 901.7 153.744 902.036 154.5 902.312C155.268 902.576 156.054 902.84 156.858 903.104C157.662 903.368 158.442 903.662 159.198 903.986C159.966 904.298 160.65 904.694 161.25 905.174C161.85 905.654 162.33 906.248 162.69 906.956C163.062 907.652 163.248 908.522 163.248 909.566C163.248 910.634 163.062 911.642 162.69 912.59C162.33 913.526 161.802 914.342 161.106 915.038C160.41 915.734 159.558 916.286 158.55 916.694C157.542 917.09 156.39 917.288 155.094 917.288C153.414 917.288 151.968 916.994 150.756 916.406C149.544 915.806 148.482 914.99 147.57 913.958L148.074 913.166C148.218 912.986 148.386 912.896 148.578 912.896C148.686 912.896 148.824 912.968 148.992 913.112C149.16 913.256 149.364 913.436 149.604 913.652C149.844 913.856 150.132 914.084 150.468 914.336C150.804 914.576 151.194 914.804 151.638 915.02C152.082 915.224 152.592 915.398 153.168 915.542C153.744 915.686 154.398 915.758 155.13 915.758C156.138 915.758 157.038 915.608 157.83 915.308C158.622 914.996 159.288 914.576 159.828 914.048C160.38 913.52 160.8 912.896 161.088 912.176C161.376 911.444 161.52 910.664 161.52 909.836C161.52 908.936 161.334 908.198 160.962 907.622C160.602 907.034 160.122 906.548 159.522 906.164C158.922 905.768 158.238 905.438 157.47 905.174C156.714 904.91 155.934 904.652 155.13 904.4C154.326 904.148 153.54 903.866 152.772 903.554C152.016 903.242 151.338 902.846 150.738 902.366C150.138 901.874 149.652 901.268 149.28 900.548C148.92 899.816 148.74 898.904 148.74 897.812C148.74 896.96 148.902 896.138 149.226 895.346C149.55 894.554 150.024 893.858 150.648 893.258C151.272 892.646 152.04 892.16 152.952 891.8C153.876 891.428 154.926 891.242 156.102 891.242C157.422 891.242 158.604 891.452 159.648 891.872C160.704 892.292 161.664 892.934 162.528 893.798L162.096 894.626ZM197.022 904.256C197.022 906.224 196.728 908.012 196.14 909.62C195.552 911.216 194.724 912.584 193.656 913.724C192.588 914.852 191.304 915.728 189.804 916.352C188.316 916.964 186.672 917.27 184.872 917.27C183.072 917.27 181.428 916.964 179.94 916.352C178.452 915.728 177.174 914.852 176.106 913.724C175.038 912.584 174.21 911.216 173.622 909.62C173.034 908.012 172.74 906.224 172.74 904.256C172.74 902.3 173.034 900.524 173.622 898.928C174.21 897.32 175.038 895.952 176.106 894.824C177.174 893.684 178.452 892.802 179.94 892.178C181.428 891.554 183.072 891.242 184.872 891.242C186.672 891.242 188.316 891.554 189.804 892.178C191.304 892.79 192.588 893.666 193.656 894.806C194.724 895.946 195.552 897.32 196.14 898.928C196.728 900.524 197.022 902.3 197.022 904.256ZM195.114 904.256C195.114 902.48 194.868 900.884 194.376 899.468C193.884 898.052 193.188 896.852 192.288 895.868C191.388 894.884 190.308 894.134 189.048 893.618C187.788 893.09 186.396 892.826 184.872 892.826C183.36 892.826 181.974 893.09 180.714 893.618C179.454 894.134 178.368 894.884 177.456 895.868C176.556 896.852 175.854 898.052 175.35 899.468C174.858 900.884 174.612 902.48 174.612 904.256C174.612 906.044 174.858 907.646 175.35 909.062C175.854 910.466 176.556 911.66 177.456 912.644C178.368 913.628 179.454 914.378 180.714 914.894C181.974 915.41 183.36 915.668 184.872 915.668C186.396 915.668 187.788 915.41 189.048 914.894C190.308 914.378 191.388 913.628 192.288 912.644C193.188 911.66 193.884 910.466 194.376 909.062C194.868 907.646 195.114 906.044 195.114 904.256ZM210.126 893.06V903.77H221.736V905.3H210.126V917H208.272V891.53H223.536V893.06H210.126ZM250.552 893.096H241.606V917H239.752V893.096H230.752V891.53H250.552V893.096ZM292.226 891.53L284.216 917H282.56L275.036 894.896C274.94 894.596 274.856 894.284 274.784 893.96C274.712 894.284 274.628 894.596 274.532 894.896L266.99 917H265.352L257.324 891.53H258.854C259.202 891.53 259.424 891.692 259.52 892.016L265.946 912.95C266.078 913.43 266.198 913.976 266.306 914.588C266.366 914.276 266.426 913.988 266.486 913.724C266.546 913.448 266.618 913.19 266.702 912.95L273.902 892.016C273.95 891.884 274.034 891.77 274.154 891.674C274.274 891.578 274.418 891.53 274.586 891.53H275.09C275.258 891.53 275.396 891.578 275.504 891.674C275.612 891.758 275.696 891.872 275.756 892.016L282.956 912.95C283.04 913.178 283.112 913.43 283.172 913.706C283.244 913.982 283.31 914.27 283.37 914.57C283.43 914.27 283.484 913.988 283.532 913.724C283.592 913.448 283.652 913.19 283.712 912.95L290.138 892.016C290.174 891.884 290.252 891.77 290.372 891.674C290.504 891.578 290.654 891.53 290.822 891.53H292.226ZM314.636 907.748L309.452 894.878C309.272 894.458 309.098 893.954 308.93 893.366C308.858 893.654 308.78 893.93 308.696 894.194C308.612 894.446 308.522 894.68 308.426 894.896L303.242 907.748H314.636ZM320.27 917H318.848C318.68 917 318.542 916.958 318.434 916.874C318.326 916.778 318.242 916.658 318.182 916.514L315.194 909.116H302.684L299.696 916.514C299.648 916.646 299.564 916.76 299.444 916.856C299.324 916.952 299.18 917 299.012 917H297.608L308.03 891.53H309.848L320.27 917ZM336.156 904.112C337.284 904.112 338.292 903.98 339.18 903.716C340.08 903.44 340.836 903.05 341.448 902.546C342.072 902.042 342.546 901.436 342.87 900.728C343.194 900.02 343.356 899.222 343.356 898.334C343.356 896.522 342.762 895.178 341.574 894.302C340.398 893.426 338.676 892.988 336.408 892.988H331.746V904.112H336.156ZM347.46 917H345.876C345.672 917 345.498 916.97 345.354 916.91C345.222 916.838 345.096 916.712 344.976 916.532L336.804 906.2C336.708 906.068 336.606 905.954 336.498 905.858C336.402 905.762 336.288 905.69 336.156 905.642C336.036 905.582 335.886 905.54 335.706 905.516C335.538 905.492 335.328 905.48 335.076 905.48H331.746V917H329.892V891.53H336.408C339.336 891.53 341.526 892.1 342.978 893.24C344.442 894.368 345.174 896.03 345.174 898.226C345.174 899.198 345.006 900.086 344.67 900.89C344.334 901.694 343.848 902.402 343.212 903.014C342.588 903.614 341.826 904.106 340.926 904.49C340.038 904.874 339.036 905.132 337.92 905.264C338.208 905.444 338.466 905.684 338.694 905.984L347.46 917ZM372.459 915.47L372.423 917H357.159V891.53H372.423V893.06H359.013V903.356H370.173V904.85H359.013V915.47H372.459ZM416.993 912.716C417.113 912.716 417.215 912.758 417.299 912.842L418.019 913.616C417.491 914.18 416.915 914.69 416.291 915.146C415.679 915.59 415.001 915.974 414.257 916.298C413.525 916.61 412.715 916.85 411.827 917.018C410.951 917.198 409.985 917.288 408.929 917.288C407.165 917.288 405.545 916.982 404.069 916.37C402.605 915.746 401.345 914.87 400.289 913.742C399.233 912.602 398.411 911.228 397.823 909.62C397.247 908.012 396.959 906.224 396.959 904.256C396.959 902.324 397.259 900.56 397.859 898.964C398.459 897.368 399.299 896 400.379 894.86C401.459 893.708 402.755 892.82 404.267 892.196C405.779 891.56 407.447 891.242 409.271 891.242C411.011 891.242 412.553 891.512 413.897 892.052C415.241 892.592 416.465 893.354 417.569 894.338L417.011 895.148C416.915 895.292 416.765 895.364 416.561 895.364C416.417 895.364 416.183 895.232 415.859 894.968C415.535 894.704 415.085 894.416 414.509 894.104C413.933 893.78 413.213 893.486 412.349 893.222C411.497 892.958 410.471 892.826 409.271 892.826C407.735 892.826 406.325 893.09 405.041 893.618C403.769 894.146 402.671 894.902 401.747 895.886C400.835 896.87 400.121 898.07 399.605 899.486C399.089 900.902 398.831 902.492 398.831 904.256C398.831 906.056 399.089 907.664 399.605 909.08C400.133 910.496 400.853 911.696 401.765 912.68C402.677 913.652 403.751 914.402 404.987 914.93C406.235 915.446 407.579 915.704 409.019 915.704C409.931 915.704 410.741 915.644 411.449 915.524C412.169 915.404 412.829 915.224 413.429 914.984C414.029 914.744 414.587 914.45 415.103 914.102C415.619 913.754 416.129 913.346 416.633 912.878C416.693 912.83 416.753 912.794 416.813 912.77C416.873 912.734 416.933 912.716 416.993 912.716ZM450.547 904.256C450.547 906.224 450.253 908.012 449.665 909.62C449.077 911.216 448.249 912.584 447.181 913.724C446.113 914.852 444.829 915.728 443.329 916.352C441.841 916.964 440.197 917.27 438.397 917.27C436.597 917.27 434.953 916.964 433.465 916.352C431.977 915.728 430.699 914.852 429.631 913.724C428.563 912.584 427.735 911.216 427.147 909.62C426.559 908.012 426.265 906.224 426.265 904.256C426.265 902.3 426.559 900.524 427.147 898.928C427.735 897.32 428.563 895.952 429.631 894.824C430.699 893.684 431.977 892.802 433.465 892.178C434.953 891.554 436.597 891.242 438.397 891.242C440.197 891.242 441.841 891.554 443.329 892.178C444.829 892.79 446.113 893.666 447.181 894.806C448.249 895.946 449.077 897.32 449.665 898.928C450.253 900.524 450.547 902.3 450.547 904.256ZM448.639 904.256C448.639 902.48 448.393 900.884 447.901 899.468C447.409 898.052 446.713 896.852 445.813 895.868C444.913 894.884 443.833 894.134 442.573 893.618C441.313 893.09 439.921 892.826 438.397 892.826C436.885 892.826 435.499 893.09 434.239 893.618C432.979 894.134 431.893 894.884 430.981 895.868C430.081 896.852 429.379 898.052 428.875 899.468C428.383 900.884 428.137 902.48 428.137 904.256C428.137 906.044 428.383 907.646 428.875 909.062C429.379 910.466 430.081 911.66 430.981 912.644C431.893 913.628 432.979 914.378 434.239 914.894C435.499 915.41 436.885 915.668 438.397 915.668C439.921 915.668 441.313 915.41 442.573 914.894C443.833 914.378 444.913 913.628 445.813 912.644C446.713 911.66 447.409 910.466 447.901 909.062C448.393 907.646 448.639 906.044 448.639 904.256ZM481.454 891.53V917H480.59C480.434 917 480.302 916.976 480.194 916.928C480.098 916.868 480.002 916.772 479.906 916.64L463.364 894.536C463.4 894.896 463.418 895.238 463.418 895.562V917H461.798V891.53H462.716C462.884 891.53 463.01 891.554 463.094 891.602C463.19 891.638 463.292 891.728 463.4 891.872L479.906 913.922C479.87 913.562 479.852 913.22 479.852 912.896V891.53H481.454ZM506.74 894.626C506.632 894.83 506.476 894.932 506.272 894.932C506.116 894.932 505.912 894.824 505.66 894.608C505.42 894.38 505.09 894.134 504.67 893.87C504.25 893.594 503.722 893.342 503.086 893.114C502.462 892.886 501.688 892.772 500.764 892.772C499.84 892.772 499.024 892.904 498.316 893.168C497.62 893.432 497.032 893.792 496.552 894.248C496.084 894.704 495.724 895.232 495.472 895.832C495.232 896.432 495.112 897.062 495.112 897.722C495.112 898.586 495.292 899.3 495.652 899.864C496.024 900.428 496.51 900.908 497.11 901.304C497.71 901.7 498.388 902.036 499.144 902.312C499.912 902.576 500.698 902.84 501.502 903.104C502.306 903.368 503.086 903.662 503.842 903.986C504.61 904.298 505.294 904.694 505.894 905.174C506.494 905.654 506.974 906.248 507.334 906.956C507.706 907.652 507.892 908.522 507.892 909.566C507.892 910.634 507.706 911.642 507.334 912.59C506.974 913.526 506.446 914.342 505.75 915.038C505.054 915.734 504.202 916.286 503.194 916.694C502.186 917.09 501.034 917.288 499.738 917.288C498.058 917.288 496.612 916.994 495.4 916.406C494.188 915.806 493.126 914.99 492.214 913.958L492.718 913.166C492.862 912.986 493.03 912.896 493.222 912.896C493.33 912.896 493.468 912.968 493.636 913.112C493.804 913.256 494.008 913.436 494.248 913.652C494.488 913.856 494.776 914.084 495.112 914.336C495.448 914.576 495.838 914.804 496.282 915.02C496.726 915.224 497.236 915.398 497.812 915.542C498.388 915.686 499.042 915.758 499.774 915.758C500.782 915.758 501.682 915.608 502.474 915.308C503.266 914.996 503.932 914.576 504.472 914.048C505.024 913.52 505.444 912.896 505.732 912.176C506.02 911.444 506.164 910.664 506.164 909.836C506.164 908.936 505.978 908.198 505.606 907.622C505.246 907.034 504.766 906.548 504.166 906.164C503.566 905.768 502.882 905.438 502.114 905.174C501.358 904.91 500.578 904.652 499.774 904.4C498.97 904.148 498.184 903.866 497.416 903.554C496.66 903.242 495.982 902.846 495.382 902.366C494.782 901.874 494.296 901.268 493.924 900.548C493.564 899.816 493.384 898.904 493.384 897.812C493.384 896.96 493.546 896.138 493.87 895.346C494.194 894.554 494.668 893.858 495.292 893.258C495.916 892.646 496.684 892.16 497.596 891.8C498.52 891.428 499.57 891.242 500.746 891.242C502.066 891.242 503.248 891.452 504.292 891.872C505.348 892.292 506.308 892.934 507.172 893.798L506.74 894.626ZM528.363 915.686C529.587 915.686 530.679 915.476 531.639 915.056C532.611 914.624 533.433 914.03 534.105 913.274C534.777 912.518 535.287 911.63 535.635 910.61C535.995 909.578 536.175 908.468 536.175 907.28V891.53H538.011V907.28C538.011 908.684 537.789 909.998 537.345 911.222C536.901 912.434 536.259 913.496 535.419 914.408C534.591 915.308 533.577 916.016 532.377 916.532C531.189 917.048 529.851 917.306 528.363 917.306C526.875 917.306 525.531 917.048 524.331 916.532C523.143 916.016 522.129 915.308 521.289 914.408C520.461 913.496 519.825 912.434 519.381 911.222C518.937 909.998 518.715 908.684 518.715 907.28V891.53H520.569V907.262C520.569 908.45 520.743 909.56 521.091 910.592C521.451 911.612 521.961 912.5 522.621 913.256C523.293 914.012 524.109 914.606 525.069 915.038C526.041 915.47 527.139 915.686 528.363 915.686ZM564.51 915.434V917H550.596V891.53H552.45V915.434H564.51ZM587.181 893.096H578.235V917H576.381V893.096H567.381V891.53H587.181V893.096ZM608.106 907.748L602.922 894.878C602.742 894.458 602.568 893.954 602.4 893.366C602.328 893.654 602.25 893.93 602.166 894.194C602.082 894.446 601.992 894.68 601.896 894.896L596.712 907.748H608.106ZM613.74 917H612.318C612.15 917 612.012 916.958 611.904 916.874C611.796 916.778 611.712 916.658 611.652 916.514L608.664 909.116H596.154L593.166 916.514C593.118 916.646 593.034 916.76 592.914 916.856C592.794 916.952 592.65 917 592.482 917H591.078L601.5 891.53H603.318L613.74 917ZM643.018 891.53V917H642.154C641.998 917 641.866 916.976 641.758 916.928C641.662 916.868 641.566 916.772 641.47 916.64L624.928 894.536C624.964 894.896 624.982 895.238 624.982 895.562V917H623.362V891.53H624.28C624.448 891.53 624.574 891.554 624.658 891.602C624.754 891.638 624.856 891.728 624.964 891.872L641.47 913.922C641.434 913.562 641.416 913.22 641.416 912.896V891.53H643.018ZM674.316 912.716C674.436 912.716 674.538 912.758 674.622 912.842L675.342 913.616C674.814 914.18 674.238 914.69 673.614 915.146C673.002 915.59 672.324 915.974 671.58 916.298C670.848 916.61 670.038 916.85 669.15 917.018C668.274 917.198 667.308 917.288 666.252 917.288C664.488 917.288 662.868 916.982 661.392 916.37C659.928 915.746 658.668 914.87 657.612 913.742C656.556 912.602 655.734 911.228 655.146 909.62C654.57 908.012 654.282 906.224 654.282 904.256C654.282 902.324 654.582 900.56 655.182 898.964C655.782 897.368 656.622 896 657.702 894.86C658.782 893.708 660.078 892.82 661.59 892.196C663.102 891.56 664.77 891.242 666.594 891.242C668.334 891.242 669.876 891.512 671.22 892.052C672.564 892.592 673.788 893.354 674.892 894.338L674.334 895.148C674.238 895.292 674.088 895.364 673.884 895.364C673.74 895.364 673.506 895.232 673.182 894.968C672.858 894.704 672.408 894.416 671.832 894.104C671.256 893.78 670.536 893.486 669.672 893.222C668.82 892.958 667.794 892.826 666.594 892.826C665.058 892.826 663.648 893.09 662.364 893.618C661.092 894.146 659.994 894.902 659.07 895.886C658.158 896.87 657.444 898.07 656.928 899.486C656.412 900.902 656.154 902.492 656.154 904.256C656.154 906.056 656.412 907.664 656.928 909.08C657.456 910.496 658.176 911.696 659.088 912.68C660 913.652 661.074 914.402 662.31 914.93C663.558 915.446 664.902 915.704 666.342 915.704C667.254 915.704 668.064 915.644 668.772 915.524C669.492 915.404 670.152 915.224 670.752 914.984C671.352 914.744 671.91 914.45 672.426 914.102C672.942 913.754 673.452 913.346 673.956 912.878C674.016 912.83 674.076 912.794 674.136 912.77C674.196 912.734 674.256 912.716 674.316 912.716ZM693.532 906.506V917H691.696V906.506L682.264 891.53H683.884C684.052 891.53 684.19 891.572 684.298 891.656C684.406 891.728 684.496 891.836 684.568 891.98L691.858 903.68C692.014 903.956 692.158 904.226 692.29 904.49C692.422 904.742 692.536 904.994 692.632 905.246C692.728 904.994 692.836 904.742 692.956 904.49C693.076 904.226 693.214 903.956 693.37 903.68L700.66 891.98C700.72 891.848 700.804 891.74 700.912 891.656C701.032 891.572 701.176 891.53 701.344 891.53H702.964L693.532 906.506Z" fill="white"/>
<path d="M707.012 426.724L570.512 347.79C564.318 344.208 556.682 344.208 550.488 347.79L413.988 426.724C410.86 428.533 408.34 431.117 406.613 434.153L550.5 517.227C553.594 519.013 557.047 519.906 560.5 519.906C563.953 519.906 567.406 519.013 570.5 517.227L714.387 434.153C712.661 431.117 710.14 428.533 707.012 426.724Z" fill="#E6E6E6"/>
<path d="M717 601.962V444.038C717 440.511 716.071 437.117 714.387 434.153L570.5 517.227C567.406 519.013 563.953 519.906 560.5 519.906V700.897C563.957 700.897 567.415 700.001 570.512 698.21L707.012 619.276C713.193 615.701 717 609.103 717 601.962Z" fill="#C4C4C4"/>
<path d="M413.988 619.276L550.488 698.21C553.585 700.001 557.043 700.897 560.5 700.897V519.906C557.047 519.906 553.594 519.013 550.5 517.227L406.613 434.153C404.929 437.117 404 440.511 404 444.038V601.962C404 609.103 407.807 615.701 413.988 619.276Z" fill="#9F9F9F"/>
<path d="M361.012 426.621L224.512 347.686C218.318 344.105 210.682 344.105 204.488 347.686L67.988 426.621C64.8596 428.43 62.3395 431.014 60.6132 434.05L204.5 517.123C207.594 518.91 211.047 519.803 214.5 519.803C217.953 519.803 221.406 518.91 224.5 517.123L368.387 434.05C366.661 431.014 364.14 428.43 361.012 426.621Z" fill="#CACACA"/>
<path d="M371 601.859V443.935C371 440.408 370.071 437.013 368.387 434.05L224.5 517.123C221.406 518.91 217.953 519.803 214.5 519.803V700.793C217.957 700.793 221.415 699.898 224.512 698.107L361.012 619.173C367.193 615.598 371 608.999 371 601.859Z" fill="#A7A7A7"/>
<path d="M67.988 619.173L204.488 698.107C207.585 699.898 211.043 700.793 214.5 700.793V519.803C211.047 519.803 207.594 518.91 204.5 517.123L60.6132 434.05C58.9286 437.013 58 440.408 58 443.935V601.859C58 608.999 61.8067 615.598 67.988 619.173Z" fill="#848484"/>
<path d="M741 164.58C754.333 172.278 754.333 191.523 741 199.221L594 284.091C580.667 291.789 564 282.167 564 266.771V97.0298C564 81.6338 580.667 72.0113 594 79.7093L741 164.58Z" fill="#A7A7A7"/>
<path d="M103 204.176C89.6667 211.874 89.6667 231.119 103 238.817L181.75 284.283C195.083 291.981 211.75 282.359 211.75 266.963V176.03C211.75 160.634 195.083 151.011 181.75 158.709L103 204.176Z" fill="#A7A7A7"/>
<path d="M537 300.454V149.984V116.719C537 116.719 535 139.219 520.5 160.219C511.126 173.794 492.474 186.719 492.474 186.719L408.5 235.542C408.5 235.542 399.25 239.219 392.5 251.219C388 259.219 388 277.219 388 277.219V394.719C391.292 394.719 394.584 393.866 397.532 392.16L527.491 316.951C533.376 313.545 537 307.258 537 300.454Z" fill="#A7A7A7"/>
<path d="M248.509 316.951L378.468 392.16C381.416 393.866 384.708 394.719 388 394.719V277.219C388 277.219 388 259.219 392.5 251.219C399.25 239.219 408.5 235.542 408.5 235.542L492.474 186.719C492.474 186.719 511.126 173.794 520.5 160.219C535 139.219 537 116.719 537 116.719V21.7188C537 21.7188 536.5 8.11886 525.5 3.71875C513 -1.28137 502 6.21883 502 6.21883L407 66.7191C407 66.7191 392.447 75.9747 386 86.7191C380 96.7191 376.5 104.43 376.5 116.719V211.219L263 146.219C263 146.219 253.778 140.219 246 145.219C239 149.719 239 155.359 239 158.719V300.454C239 307.258 242.624 313.545 248.509 316.951Z" fill="#CACACA"/>
</svg>
