<svg width="267" height="267" viewBox="0 0 267 267" fill="none" xmlns="http://www.w3.org/2000/svg">
<path d="M207.333 74C202.267 74.9333 162.267 82.1333 118.667 89.8666C56.6667 100.933 38.9333 104.4 37.7333 106.267C36.4 107.867 36 117.867 36 144.667C36 179.6 36.1333 181.067 38.8 183.467C41.4667 185.867 42 185.733 69.0667 180.4C88 176.667 97.3333 175.333 99.0667 176.133C100.8 177.2 101.333 179.2 101.333 186C101.333 194.133 101.467 194.667 104.4 194.667C106.667 194.667 108.8 192.133 114 183.2C117.733 176.933 121.467 171.2 122.267 170.4C123.6 169.333 218.4 152.133 223.6 152C224.533 152 226.4 150.667 228 149.067C230.533 146.267 230.667 144.533 230.667 112C230.667 78 230.667 77.7333 227.6 74.9333C224.133 71.6 220.933 71.4666 207.333 74ZM204 98.1333C204 101.467 201.867 106.533 196.533 115.467C192.4 122.533 189.467 128.533 189.867 128.933C190.267 129.333 193.6 129.067 197.333 128.4C200.933 127.6 204.133 127.2 204.4 127.467C204.667 127.733 204.533 129.867 204.267 132.4L203.733 136.8L189.6 139.2C181.733 140.533 174.533 142 173.733 142.267C170.133 143.733 171.867 132.933 176.4 125.333C178.8 121.333 182.533 115.067 184.667 111.467L188.533 104.933L183.2 105.867C180.4 106.4 176.933 107.067 175.6 107.467C173.467 108.133 173.2 107.467 173.6 103.2L174 98.1333L186 95.8666C204 92.5333 204 92.5333 204 98.1333ZM154.8 106.8C157.867 109.867 157.467 114.8 153.867 118.8C152.133 120.667 152.267 121.2 155.333 123.2C160.933 126.8 159.333 136.4 152 142.4C148.667 145.2 142 147.733 133.733 149.2C129.467 150.133 124.667 151.067 123.067 151.467L120 152V108.533L129.733 106.4C144.133 103.333 151.467 103.467 154.8 106.8ZM99.0667 116.933C103.333 119.067 106.667 125.733 106.667 132C106.667 140.4 99.8667 151.2 92 155.333C89.0667 156.8 70 161.333 66.5333 161.333C65.8667 161.333 65.3333 151.467 65.3333 139.333C65.3333 119.333 65.6 117.333 67.7333 117.2C68.9333 117.2 74.2667 116.4 79.3333 115.333C89.2 113.6 92.9333 113.867 99.0667 116.933Z" fill="black"/>
<path d="M134.267 114.267C133.733 114.667 133.333 116.933 133.333 119.067C133.333 122.667 133.6 122.933 137.067 122C141.733 120.933 144.533 118.133 143.6 115.467C142.8 113.333 136 112.4 134.267 114.267Z" fill="black"/>
<path d="M136.4 128.933C133.867 129.467 133.333 130.4 133.333 134.133C133.333 138 133.733 138.667 136.533 138.667C138.267 138.667 141.067 137.467 142.8 136.133C145.467 134 145.733 133.067 144.533 131.067C142.933 128.533 141.067 128 136.4 128.933Z" fill="black"/>
<path d="M81.7333 126.267C78.9333 126.8 78.6667 127.6 78.6667 136.8C78.6667 146.533 78.6667 146.667 82 146.667C87.2 146.667 92 141.067 92 135.067C92 132.267 91.4667 129.333 90.9333 128.533C89.7333 126.533 85.4667 125.6 81.7333 126.267Z" fill="black"/>
<path fill-rule="evenodd" clip-rule="evenodd" d="M154.8 106.8C157.867 109.867 157.467 114.8 153.867 118.8C152.133 120.667 152.267 121.2 155.333 123.2C160.933 126.8 159.333 136.4 152 142.4C148.667 145.2 142 147.733 133.733 149.2C129.467 150.133 124.667 151.067 123.067 151.467L120 152V108.533L129.733 106.4C144.133 103.333 151.467 103.467 154.8 106.8ZM133.333 119.067C133.333 116.933 133.733 114.667 134.267 114.267C136 112.4 142.8 113.333 143.6 115.467C144.533 118.133 141.733 120.933 137.067 122C133.6 122.933 133.333 122.667 133.333 119.067ZM133.333 134.133C133.333 130.4 133.867 129.467 136.4 128.933C141.067 128 142.933 128.533 144.533 131.067C145.733 133.067 145.467 134 142.8 136.133C141.067 137.467 138.267 138.667 136.533 138.667C133.733 138.667 133.333 138 133.333 134.133Z" fill="white"/>
<path d="M204 98.1333C204 101.467 201.867 106.533 196.533 115.467C192.4 122.533 189.467 128.533 189.867 128.933C190.267 129.333 193.6 129.067 197.333 128.4C200.933 127.6 204.133 127.2 204.4 127.467C204.667 127.733 204.533 129.867 204.267 132.4L203.733 136.8L189.6 139.2C181.733 140.533 174.533 142 173.733 142.267C170.133 143.733 171.867 132.933 176.4 125.333C178.8 121.333 182.533 115.067 184.667 111.467L188.533 104.933L183.2 105.867C180.4 106.4 176.933 107.067 175.6 107.467C173.467 108.133 173.2 107.467 173.6 103.2L174 98.1333L186 95.8666C204 92.5333 204 92.5333 204 98.1333Z" fill="white"/>
<path fill-rule="evenodd" clip-rule="evenodd" d="M99.0667 116.933C103.333 119.067 106.667 125.733 106.667 132C106.667 140.4 99.8667 151.2 92 155.333C89.0667 156.8 70 161.333 66.5333 161.333C65.8667 161.333 65.3333 151.467 65.3333 139.333C65.3333 119.333 65.6 117.333 67.7333 117.2C68.9333 117.2 74.2667 116.4 79.3333 115.333C89.2 113.6 92.9333 113.867 99.0667 116.933ZM78.6667 136.8C78.6667 127.6 78.9333 126.8 81.7333 126.267C85.4667 125.6 89.7333 126.533 90.9333 128.533C91.4667 129.333 92 132.267 92 135.067C92 141.067 87.2 146.667 82 146.667C78.6667 146.667 78.6667 146.533 78.6667 136.8Z" fill="white"/>
</svg>
