<svg width="693" height="699" viewBox="0 0 693 699" fill="none" xmlns="http://www.w3.org/2000/svg">
<path d="M649.012 424.724L512.512 345.79C506.318 342.208 498.682 342.208 492.488 345.79L355.988 424.724C352.86 426.533 350.339 429.117 348.613 432.153L492.5 515.227C495.594 517.013 499.047 517.906 502.5 517.906C505.953 517.906 509.406 517.013 512.5 515.227L656.387 432.153C654.661 429.117 652.14 426.533 649.012 424.724Z" fill="#E6E6E6"/>
<path d="M659 599.962V442.038C659 438.511 658.071 435.117 656.387 432.153L512.5 515.227C509.406 517.013 505.953 517.906 502.5 517.906V698.897C505.957 698.897 509.415 698.001 512.512 696.21L649.012 617.276C655.193 613.701 659 607.103 659 599.962Z" fill="#C4C4C4"/>
<path d="M355.988 617.276L492.488 696.21C495.585 698.001 499.043 698.897 502.5 698.897V517.906C499.047 517.906 495.594 517.013 492.5 515.227L348.613 432.153C346.929 435.117 346 438.511 346 442.038V599.962C346 607.103 349.807 613.701 355.988 617.276Z" fill="#9F9F9F"/>
<path d="M303.012 424.621L166.512 345.686C160.318 342.105 152.682 342.105 146.488 345.686L9.988 424.621C6.85965 426.43 4.3395 429.014 2.61323 432.05L146.5 515.123C149.594 516.91 153.047 517.803 156.5 517.803C159.953 517.803 163.406 516.91 166.5 515.123L310.387 432.05C308.661 429.014 306.14 426.43 303.012 424.621Z" fill="#CACACA"/>
<path d="M313 599.859V441.935C313 438.408 312.071 435.013 310.387 432.05L166.5 515.123C163.406 516.91 159.953 517.803 156.5 517.803V698.794C159.957 698.794 163.415 697.898 166.512 696.107L303.012 617.173C309.193 613.598 313 606.999 313 599.859Z" fill="#A7A7A7"/>
<path d="M9.98799 617.173L146.488 696.107C149.585 697.898 153.043 698.794 156.5 698.794V517.803C153.047 517.803 149.594 516.91 146.5 515.123L2.61323 432.05C0.928595 435.013 0 438.408 0 441.935V599.859C0 606.999 3.80673 613.598 9.98799 617.173Z" fill="#848484"/>
<path d="M683 162.58C696.333 170.278 696.333 189.523 683 197.221L536 282.091C522.667 289.789 506 280.167 506 264.771V95.0299C506 79.6339 522.667 70.0114 536 77.7094L683 162.58Z" fill="#A7A7A7"/>
<path d="M45 202.176C31.6667 209.874 31.6667 229.119 45 236.817L123.75 282.283C137.083 289.981 153.75 280.359 153.75 264.963V174.03C153.75 158.634 137.083 149.011 123.75 156.709L45 202.176Z" fill="#A7A7A7"/>
<path d="M479 298.454V114.719C479 114.719 477 137.219 462.5 158.219C453.126 171.794 434.474 184.719 434.474 184.719L350.5 233.542C350.5 233.542 341.25 237.219 334.5 249.219C330 257.219 330 275.219 330 275.219V392.719C333.292 392.719 336.584 391.866 339.532 390.16L469.491 314.951C475.376 311.545 479 305.258 479 298.454Z" fill="#A7A7A7"/>
<path d="M190.509 314.951L320.468 390.16C323.416 391.866 326.708 392.719 330 392.719V275.219C330 275.219 330 257.219 334.5 249.219C341.25 237.219 350.5 233.542 350.5 233.542L434.474 184.719C434.474 184.719 453.126 171.794 462.5 158.219C477 137.219 479 114.719 479 114.719V19.7189C479 19.7189 478.5 6.1189 467.5 1.71879C455 -3.28133 444 4.21887 444 4.21887L349 64.7191C349 64.7191 334.447 73.9747 328 84.7191C322 94.7191 318.5 102.43 318.5 114.719V209.219L205 144.219C205 144.219 195.778 138.219 188 143.219C181 147.719 181 153.359 181 156.719V298.454C181 305.258 184.624 311.545 190.509 314.951Z" fill="#CACACA"/>
</svg>
