<svg width="540" height="195" viewBox="0 0 540 195" fill="none" xmlns="http://www.w3.org/2000/svg">
<path d="M297.621 159.836V94.857H286.216V77.8605H297.621V72.7496C297.621 65.6018 298.793 59.4164 301.181 54.2011C303.533 48.9857 306.884 44.9418 311.168 42.0767C315.453 39.2116 320.536 37.7939 326.336 37.7939C329.963 37.7939 333.561 38.2416 337.151 39.1071C340.712 39.9726 344.198 41.2485 347.624 42.9049L343.339 59.5582C341.682 58.5584 339.741 57.8347 337.502 57.3124C335.255 56.8274 333.18 56.5887 331.314 56.5887C327.44 56.5887 324.574 57.8645 322.641 60.461C320.708 63.05 319.737 66.8552 319.737 71.9288V77.8679H340.854V94.8645H319.737V159.844H297.621V159.836Z" fill="#789352"/>
<path d="M355.431 39.4111H377.548V132.228C377.548 136.302 378.205 139.033 379.518 140.413C380.832 141.793 382.594 142.487 384.803 142.487C386.773 142.487 388.677 142.278 390.506 141.831C392.304 141.383 393.924 140.794 395.38 140.033L398.35 157.029C395.38 158.447 391.924 159.551 388.05 160.312C384.146 161.073 380.548 161.454 377.234 161.454C370.285 161.454 364.933 159.626 361.126 155.925C357.327 152.232 355.424 147.016 355.424 140.309V39.4111H355.431Z" fill="#789352"/>
<path d="M407.927 61.2164V39.4521H429.872V61.2164H407.927ZM407.927 159.838V73.408H429.872V159.838H407.927Z" fill="#789352"/>
<path d="M501.819 161.493C495.116 161.493 489.167 159.97 483.987 156.934C478.807 153.897 474.791 149.853 471.925 144.847V194.971H449.98V74.2341H469.298V89.052C472.612 84.0455 476.799 80.106 481.845 77.2409C486.891 74.3758 492.661 72.9209 499.162 72.9209C504.999 72.9209 510.358 74.0625 515.27 76.3381C520.181 78.6138 524.466 81.7997 528.123 85.8735C531.818 89.9473 534.654 94.6479 536.625 100.005C538.596 105.362 539.596 110.988 539.596 116.964C539.596 125.224 537.969 132.752 534.722 139.49C531.475 146.227 527.019 151.577 521.346 155.553C515.71 159.493 509.179 161.493 501.819 161.493ZM494.392 142.668C497.707 142.668 500.752 141.974 503.551 140.564C506.35 139.146 508.731 137.281 510.739 134.901C512.747 132.521 514.262 129.753 515.367 126.574C516.472 123.396 517.024 120.113 517.024 116.8C517.024 113.487 516.434 110.1 515.3 107.026C514.158 103.952 512.463 101.288 510.254 99.0126C508.044 96.7295 505.484 94.9687 502.581 93.6555C499.677 92.3797 496.43 91.7231 492.937 91.7231C490.966 91.7231 488.891 92.0663 486.749 92.7602C484.607 93.4541 482.532 94.4539 480.561 95.7297C478.591 97.0056 476.866 98.4904 475.448 100.154C474.03 101.811 472.858 103.713 471.992 105.855V125.925C473.411 129.036 475.277 131.902 477.523 134.461C479.77 137.05 482.397 139.057 485.368 140.504C488.272 141.952 491.31 142.683 494.385 142.683L494.392 142.668Z" fill="#789352"/>
<path d="M109.388 129.25H19.7055C8.83763 129.25 0 138.084 0 148.948C0 159.811 8.83763 168.645 19.7055 168.645H109.388C120.293 168.645 129.094 159.811 129.094 148.948C129.131 138.047 120.293 129.25 109.388 129.25Z" fill="#A4C66D"/>
<path d="M236.757 47.8411C228.875 39.9621 216.059 39.9621 208.177 47.8411L191.935 64.0766C182.888 27.2855 149.642 0 110.037 0C63.4532 0 25.6768 37.7536 25.6768 84.3188C25.6768 130.884 63.4457 168.638 110.03 168.638C136.192 168.638 159.555 156.752 175.036 138.069C175.178 137.965 175.275 137.86 175.416 137.726L236.757 76.4099C244.639 68.5309 244.639 55.7499 236.757 47.8411ZM65.9089 84.3188C65.9089 59.9655 85.6741 40.2083 110.037 40.2083C134.401 40.2083 154.166 59.9655 154.166 84.3188C154.166 108.672 134.401 128.429 110.037 128.429C85.6741 128.429 65.9089 108.702 65.9089 84.3188Z" fill="#789352"/>
</svg>