<svg xmlns="http://www.w3.org/2000/svg"
    xmlns:xlink="http://www.w3.org/1999/xlink"
    xmlns:serif="http://www.serif.com/" width="100%" height="100%" viewBox="0 0 456 383" version="1.1" xml:space="preserve" style="fill-rule:evenodd;clip-rule:evenodd;stroke-linejoin:round;stroke-miterlimit:2;">
    <g transform="matrix(1,0,0,1,-265.617,-20990.7)">
        <g transform="matrix(4.16667,0,0,4.16667,0,0)">
            <g transform="matrix(1,0,0,1,70.0219,5049.36)">
                <path d="M0,-0.044C0.136,-5.011 2.624,-6.936 5.157,-6.936C7.825,-6.936 9.409,-4.877 9.409,-0.939L9.409,11.546L14.927,11.546L14.927,-0.044C15.063,-5.011 17.551,-6.936 20.084,-6.936C22.752,-6.936 24.336,-4.877 24.336,-0.939L24.336,11.546L29.899,11.546L29.899,-0.984C29.899,-7.518 27.321,-11.59 21.395,-11.59C18.908,-11.59 15.696,-10.963 13.887,-7.339C12.394,-10.471 9.589,-11.59 6.74,-11.59C3.8,-11.59 1.221,-10.068 0,-7.294L0,-11.097L-5.564,-11.097L-5.564,11.546L0,11.546L0,-0.044Z" style="fill:rgb(234,192,15);fill-rule:nonzero;"></path>
            </g>
        </g>
        <g transform="matrix(4.16667,0,0,4.16667,0,0)">
            <g transform="matrix(1,0,0,1,109.701,5083.01)">
                <path d="M0,0C0,3.982 -2.94,7.115 -6.83,7.115C-10.675,7.115 -13.615,3.982 -13.615,0C-13.615,-3.983 -10.675,-7.116 -6.83,-7.116C-2.94,-7.116 0,-3.938 0,0M-19.224,0C-19.224,6.578 -13.434,11.814 -6.83,11.814C-0.136,11.814 5.609,6.533 5.609,0C5.609,-6.489 -0.136,-11.814 -6.83,-11.814C-13.434,-11.814 -19.224,-6.534 -19.224,0" style="fill:rgb(234,192,15);fill-rule:nonzero;"></path>
            </g>
        </g>
        <g transform="matrix(4.16667,0,0,4.16667,0,0)">
            <g transform="matrix(1,0,0,1,129.267,5090.12)">
                <path d="M0,-14.231C3.89,-14.231 6.83,-11.054 6.83,-7.115C6.83,-3.133 3.89,-0 0,-0C-3.845,-0 -6.785,-3.133 -6.785,-7.115C-6.785,-11.098 -3.845,-14.231 0,-14.231M-12.394,-7.115C-12.394,-0.538 -6.604,4.699 0,4.699C6.694,4.699 12.439,-0.582 12.439,-7.115C12.439,-13.604 6.694,-18.93 0,-18.93C-6.604,-18.93 -12.394,-13.649 -12.394,-7.115" style="fill:rgb(234,192,15);fill-rule:nonzero;"></path>
            </g>
        </g>
        <g transform="matrix(4.16667,0,0,4.16667,0,0)">
            <g transform="matrix(1,0,0,1,155.437,5082.98)">
                <path d="M0,-7.172C4.161,-7.172 6.966,-4.174 6.966,0.212C6.966,4.687 3.98,7.238 0.181,7.238C-3.981,7.238 -6.559,4.015 -6.559,-0.012C-6.559,-3.905 -4.207,-7.172 0,-7.172M-0.995,11.847C2.352,11.847 5.202,10.415 6.875,7.954L6.875,11.355L12.439,11.355L12.439,-19.019L6.875,-19.019L6.875,-7.933C4.976,-10.528 2.126,-11.781 -0.95,-11.781C-7.961,-11.781 -12.168,-6.456 -12.168,-0.056C-12.168,6.566 -7.735,11.847 -0.995,11.847" style="fill:rgb(234,192,15);fill-rule:nonzero;"></path>
            </g>
        </g>
        <g transform="matrix(4.16667,0,0,4.16667,0,0)">
            <g transform="matrix(1,0,0,1,93.9322,5129.05)">
                <path d="M0,-22.644L-4.93,-7.474L-9.635,-22.018L-13.841,-22.018L-18.5,-7.474L-23.476,-22.644L-29.447,-22.644L-21.214,0L-16.284,0L-11.715,-14.276L-7.192,0L-2.217,0L6.016,-22.644L0,-22.644Z" style="fill:rgb(234,192,15);fill-rule:nonzero;"></path>
            </g>
        </g>
        <g transform="matrix(4.16667,0,0,4.16667,0,0)">
            <g transform="matrix(1,0,0,1,104.76,5120.68)">
                <path d="M0,-5.907C1.146,-9.398 4.142,-10.382 6.522,-10.382C8.814,-10.382 11.854,-9.398 12.691,-5.907L0,-5.907ZM6.522,-14.768C-0.529,-14.768 -5.685,-9.487 -5.685,-2.864C-5.685,3.58 -0.881,8.861 7.139,8.861C10.576,8.861 14.234,7.921 17.231,4.52L14.146,1.432C12.251,3.177 10.18,4.206 7.403,4.206C2.6,4.206 -0.264,1.387 -0.264,-2.193L18.244,-2.193C18.244,-10.919 12.559,-14.768 6.522,-14.768" style="fill:rgb(234,192,15);fill-rule:nonzero;"></path>
            </g>
        </g>
        <g transform="matrix(4.16667,0,0,4.16667,0,0)">
            <g transform="matrix(1,0,0,1,130.192,5120.68)">
                <path d="M0,-5.907C1.146,-9.398 4.142,-10.382 6.522,-10.382C8.814,-10.382 11.854,-9.398 12.691,-5.907L0,-5.907ZM6.522,-14.768C-0.529,-14.768 -5.685,-9.487 -5.685,-2.864C-5.685,3.58 -0.881,8.861 7.139,8.861C10.576,8.861 14.234,7.921 17.231,4.52L14.146,1.432C12.251,3.177 10.18,4.206 7.403,4.206C2.6,4.206 -0.264,1.387 -0.264,-2.193L18.244,-2.193C18.244,-10.919 12.559,-14.768 6.522,-14.768" style="fill:rgb(234,192,15);fill-rule:nonzero;"></path>
            </g>
        </g>
        <g transform="matrix(4.16667,0,0,4.16667,0,0)">
            <g transform="matrix(1,0,0,1,170.839,5105.04)">
                <path d="M0,18.405C-0.708,19.273 -2.047,19.534 -2.545,19.534C-4.218,19.534 -4.942,18.729 -6.118,17.028L-9.556,11.747L-1.595,2.037L-1.595,1.366L-7.746,1.366L-14.938,10.718L-14.938,-6.096L-20.502,-6.096L-20.502,24.009L-14.938,24.009L-14.938,13.045L-10.325,20.384C-8.742,22.622 -6.796,24.501 -3.314,24.501C-2.183,24.501 0.26,24.367 2.16,22.532L0,18.405Z" style="fill:rgb(234,192,15);fill-rule:nonzero;"></path>
            </g>
        </g>
        <g transform="matrix(4.16667,0,0,4.16667,0,0)">
            <g transform="matrix(1,0,0,1,104.816,5038.5)">
                <path d="M0,28.881L5.847,28.881L19.829,0L13.474,0L7.394,15.138L1.038,0L-5.363,0L4.264,20.765L0,28.881Z" style="fill:rgb(234,192,15);fill-rule:nonzero;"></path>
            </g>
        </g>
        <g transform="matrix(4.16667,0,0,4.16667,0,0)">
            <g transform="matrix(1,0,0,1,76.23,5089.44)">
                <path d="M0,-13.627C1.237,-13.627 2.374,-13.308 3.357,-12.747C5.042,-11.791 6.26,-10.122 6.7,-8.126C6.819,-7.591 6.881,-7.035 6.881,-6.46C6.881,-2.449 3.919,0.705 0,0.705C-3.87,0.705 -6.833,-2.449 -6.833,-6.46C-6.833,-10.47 -3.87,-13.627 0,-13.627M0,5.439C6.743,5.439 12.258,0.119 12.258,-6.46C12.258,-6.525 12.252,-6.59 12.25,-6.656L12.252,-6.656L12.252,-12.325C12.252,-13.241 13.321,-14.016 14.587,-14.016L14.587,-19.066C11.751,-19.066 9.288,-17.597 8.051,-15.452C7.641,-15.814 7.201,-16.152 6.708,-16.455C4.75,-17.656 2.436,-18.358 0,-18.358C-6.649,-18.358 -12.482,-13.041 -12.482,-6.46C-12.482,0.165 -6.649,5.439 0,5.439" style="fill:rgb(234,192,15);fill-rule:nonzero;"></path>
            </g>
        </g>
        <g transform="matrix(4.16667,0,0,4.16667,0,0)">
            <g transform="matrix(1,0,0,1,76.2554,5099.88)">
                <path d="M0,-1.52C-2.765,-1.52 -4.777,-3.067 -6.068,-4.861L-11.256,-3.591C-10.635,-2.379 -9.768,-1.228 -8.688,-0.205C-6.268,2.08 -3.181,3.341 0,3.341C3.184,3.341 6.268,2.08 8.688,-0.205C9.771,-1.228 10.638,-2.379 11.256,-3.591L6.068,-4.861C4.777,-3.067 2.765,-1.52 0,-1.52" style="fill:rgb(234,192,15);fill-rule:nonzero;"></path>
            </g>
        </g>
    </g>
</svg>
